<?xml version="1.0" encoding="UTF-8"?>
<svg version="1.1" xmlns="http://www.w3.org/2000/svg" width="305" height="38">
<path d="M0 0 C100.65 0 201.3 0 305 0 C305 12.54 305 25.08 305 38 C204.35 38 103.7 38 0 38 C0 25.46 0 12.92 0 0 Z " fill="#D0DEDA" transform="translate(0,0)"/>
<path d="M0 0 C2.5 1 2.5 1 4 2 C4.66 1.34 5.32 0.68 6 0 C9.75861526 0.14183454 12.39826261 0.67091129 15.70703125 2.48046875 C19.08340484 6.19045336 18.59527438 9.35285712 18.375 14.1875 C18.36082031 15.01958984 18.34664062 15.85167969 18.33203125 16.70898438 C18.18268327 22.81731673 18.18268327 22.81731673 17 24 C14.5 24.125 14.5 24.125 12 24 C10.00383446 22.00383446 10.59016573 18.18298037 10.4375 15.4375 C10.39431641 14.72658203 10.35113281 14.01566406 10.30664062 13.28320312 C10.20028223 11.52238088 10.09961154 9.7612168 10 8 C8.35 8.33 6.7 8.66 5 9 C4.67 13.62 4.34 18.24 4 23 C1.69 23 -0.62 23 -3 23 C-3.33 18.05 -3.66 13.1 -4 8 C-8.63019987 8.4452998 -8.63019987 8.4452998 -10 10 C-10.20931897 12.16296273 -10.36797069 14.3309471 -10.5 16.5 C-10.88888889 22.88888889 -10.88888889 22.88888889 -12 24 C-14.5 24.125 -14.5 24.125 -17 24 C-18 23 -18 23 -18.11352539 20.86694336 C-18.10828857 19.95050049 -18.10305176 19.03405762 -18.09765625 18.08984375 C-18.09443359 17.10048828 -18.09121094 16.11113281 -18.08789062 15.09179688 C-18.07951172 14.05087891 -18.07113281 13.00996094 -18.0625 11.9375 C-18.05798828 10.89271484 -18.05347656 9.84792969 -18.04882812 8.77148438 C-18.03699913 6.1809334 -18.02051689 3.59049441 -18 1 C-16.02 1 -14.04 1 -12 1 C-12 1.66 -12 2.32 -12 3 C-11.505 2.505 -11.01 2.01 -10.5 1.5 C-6.99998826 -0.60000704 -3.99209495 -0.49901187 0 0 Z " fill="#134451" transform="translate(105,9)"/>
<path d="M0 0 C0.66 0 1.32 0 2 0 C3.65 0 5.3 0 7 0 C7.33 7.59 7.66 15.18 8 23 C6.02 23 4.04 23 2 23 C1.34 22.34 0.68 21.68 0 21 C-0.99 21.66 -1.98 22.32 -3 23 C-6.09513519 23.39937228 -8.0385906 23.63376466 -11 23 C-14.37779439 20.32591278 -15.61535234 18.7881712 -16.51171875 14.62109375 C-16.82618746 10.04382696 -16.31489709 6.65311757 -13.625 2.875 C-9.6524123 -1.18312188 -5.31344352 -0.60206284 0 0 Z " fill="#123D4C" transform="translate(60,10)"/>
<path d="M0 0 C2.85801612 1.61519803 4.92658102 3.466659 7 6 C6.01 7.32 5.02 8.64 4 10 C1.82034689 9.53293148 0.07412835 9.04200607 -1.875 7.9375 C-4.75062241 6.66884305 -6.89093114 6.66924799 -10 7 C-12.06027677 8.57492311 -12.8864068 9.63065204 -13.65234375 12.12109375 C-14.30347214 17.05282545 -14.30347214 17.05282545 -12.5 21.5625 C-9.09416867 23.52085302 -6.87072857 23.48384107 -3 23 C-2.29875 22.46375 -1.5975 21.9275 -0.875 21.375 C-0.25625 20.92125 0.3625 20.4675 1 20 C3.75 20.8125 3.75 20.8125 6 22 C6 25 6 25 3.75 27.625 C-0.41696637 31.22374368 -4.38239986 31.37146749 -9.75390625 31.265625 C-13.48268353 30.82465656 -15.29975132 29.57465571 -18 27 C-21.17002754 21.88450385 -22.8008088 17.06326662 -22 11 C-20.546486 6.96246111 -18.5187826 3.58212095 -15.06640625 0.92578125 C-10.28620785 -1.21581992 -5.05688932 -0.92228627 0 0 Z " fill="#16414D" transform="translate(34,2)"/>
<path d="M0 0 C3.8946741 0.77893482 5.65071354 1.90071354 8.4375 4.6875 C9.4375 6.6875 9.4375 6.6875 9.4375 12.6875 C4.1575 12.6875 -1.1225 12.6875 -6.5625 12.6875 C-4.79398964 15.86824165 -4.79398964 15.86824165 -2.5625 18.6875 C2.76423036 19.02606828 2.76423036 19.02606828 7.4375 16.6875 C8.0975 17.0175 8.7575 17.3475 9.4375 17.6875 C8.50538763 20.01778092 7.74746602 21.44641532 5.75 23 C2.1328097 24.0753809 0.05595524 23.81046887 -3.5625 22.6875 C-7.27356431 19.34185778 -9.28484261 16.00637263 -10.3125 11.125 C-9.00962395 5.15348475 -6.1350413 1.18395534 0 0 Z " fill="#3B5A68" transform="translate(244.5625,9.3125)"/>
<path d="M0 0 C1.6484375 1.015625 1.6484375 1.015625 4.0234375 3.203125 C4.0234375 4.193125 4.0234375 5.183125 4.0234375 6.203125 C0.0234375 6.203125 0.0234375 6.203125 -2.3515625 4.703125 C-5.62083857 2.83496724 -7.2617024 2.59661723 -10.9765625 3.203125 C-14.38911013 5.63128389 -16.65337013 7.71833645 -18.9765625 11.203125 C-19.50063078 15.13363714 -19.12446337 16.92845196 -17.2265625 20.453125 C-15.04539887 23.11899166 -14.0905719 24.01764601 -10.9765625 25.203125 C-8.7088972 25.34283633 -8.7088972 25.34283633 -6.4140625 25.015625 C-5.64964844 24.93957031 -4.88523438 24.86351563 -4.09765625 24.78515625 C-1.62104117 24.10556942 -0.61232689 23.14200229 1.0234375 21.203125 C2.0134375 21.533125 3.0034375 21.863125 4.0234375 22.203125 C3.07252077 24.71008729 2.08542372 26.14713745 0.0859375 27.953125 C-4.61489128 29.87183062 -8.98274647 30.09615362 -13.9765625 29.203125 C-18.25446929 26.85521523 -21.15319487 23.73621953 -22.9765625 19.203125 C-23.78068893 14.14982524 -23.73074041 9.61679419 -20.8515625 5.265625 C-15.65712924 -0.86930454 -7.59782052 -3.06315294 0 0 Z " fill="#1E3E49" transform="translate(151.9765625,2.796875)"/>
<path d="M0 0 C2.31 0 4.62 0 7 0 C7 10.56 7 21.12 7 32 C5.02 32 3.04 32 1 32 C0 31 0 31 -0.11352539 28.04077148 C-0.10828857 26.74727783 -0.10305176 25.45378418 -0.09765625 24.12109375 C-0.0962413 23.4344313 -0.09482635 22.74776886 -0.09336853 22.04029846 C-0.08775479 19.83932199 -0.07520007 17.63844591 -0.0625 15.4375 C-0.05748676 13.94856917 -0.05292355 12.45963676 -0.04882812 10.97070312 C-0.03778093 7.31376925 -0.02050713 3.65689442 0 0 Z " fill="#1B424D" transform="translate(74,1)"/>
<path d="M0 0 C2.55078958 2.22165544 2.93332671 3.60829443 3.5 6.9375 C2.81303325 11.14517131 1.4272611 12.52070473 -2 15 C-5.5625 15.625 -5.5625 15.625 -9 15 C-11.5 12.9375 -11.5 12.9375 -13 10 C-13.07481382 5.73561227 -12.64839572 3.76281849 -9.875 0.5 C-6.06467129 -1.48799759 -4.08035596 -1.20899436 0 0 Z " fill="#D4E3E1" transform="translate(176,14)"/>
<path d="M0 0 C3.03601588 1.49237554 5.10047033 3.19374619 7 6 C8.25681149 10.79640304 7.44014812 14.15005881 5.1875 18.5 C2.33812235 21.75643161 -0.14923993 22.21238272 -4.3125 22.5 C-7.10745784 22.4634646 -8.58237493 22.27841671 -10.921875 20.71875 C-13.75761236 17.74797753 -15.38442938 15.07680668 -15.6875 10.9375 C-14.82510096 5.99830551 -13.53838305 4.45413584 -10 1 C-6.7226883 -0.63865585 -3.52838406 -0.64613137 0 0 Z M-11 7 C-12.28026854 11.14204528 -12.48456831 13.05105372 -10.5 16.9375 C-8.08227142 19.27394461 -8.08227142 19.27394461 -4.5625 19.625 C-0.08854326 18.84009531 1.36788535 17.66900829 4 14 C4.83333333 11 4.83333333 11 4 8 C1.70853575 4.98836127 0.23996182 3.27899141 -3.5 2.4375 C-6.97543156 3.2194721 -8.58202175 4.38052356 -11 7 Z " fill="#1B4455" transform="translate(175,10)"/>
<path d="M0 0 C0.99 0 1.98 0 3 0 C3.33 0.99 3.66 1.98 4 3 C4.350625 2.505 4.70125 2.01 5.0625 1.5 C8.0701582 -0.82850957 10.30687194 -0.44572235 14 0 C16.70703125 1.41796875 16.70703125 1.41796875 19 4 C19.61747728 7.26937569 19.47150204 10.43786523 19.3125 13.75 C19.28994141 14.63816406 19.26738281 15.52632812 19.24414062 16.44140625 C19.18532552 18.62932812 19.10321268 20.81379671 19 23 C18.01 23 17.02 23 16 23 C15.96261719 21.79601562 15.92523438 20.59203125 15.88671875 19.3515625 C15.82107072 17.77600989 15.75462299 16.20049046 15.6875 14.625 C15.66494141 13.8309375 15.64238281 13.036875 15.61914062 12.21875 C15.52214925 10.13784419 15.27005175 8.06558668 15 6 C12.25158089 3.72328262 12.25158089 3.72328262 9.5 4.1875 C6.66258921 5.10965851 5.75007173 5.60412715 4 8 C3.41781668 11.4223884 3.41781668 11.4223884 3.3125 15.1875 C3.24675781 16.45980469 3.18101562 17.73210938 3.11328125 19.04296875 C3.05720703 20.50669922 3.05720703 20.50669922 3 22 C2.01 22 1.02 22 0 22 C0 14.74 0 7.48 0 0 Z " fill="#204258" transform="translate(187,10)"/>
<path d="M0 0 C1.32 0 2.64 0 4 0 C4.33 0.99 4.66 1.98 5 3 C5.350625 2.484375 5.70125 1.96875 6.0625 1.4375 C8 0 8 0 11.4375 0.125 C16.70928265 1.41982381 16.70928265 1.41982381 19 4 C19.50298541 7.07306605 19.37480082 10.08427972 19.25 13.1875 C19.23195312 14.03248047 19.21390625 14.87746094 19.1953125 15.74804688 C19.14820586 17.83251573 19.07646233 19.91640144 19 22 C18.34 22 17.68 22 17 22 C16.97421875 21.03578125 16.9484375 20.0715625 16.921875 19.078125 C16.86515625 17.81484375 16.8084375 16.5515625 16.75 15.25 C16.70359375 13.99703125 16.6571875 12.7440625 16.609375 11.453125 C15.92515079 7.57585448 15.14539606 6.2965461 12 4 C9.22853818 4.06759663 7.66708375 4.54016557 5.390625 6.109375 C3.27157581 8.99032951 3.47414938 11.66354345 3.3125 15.1875 C3.24675781 16.45980469 3.18101562 17.73210938 3.11328125 19.04296875 C3.05720703 20.50669922 3.05720703 20.50669922 3 22 C2.01 22 1.02 22 0 22 C0 14.74 0 7.48 0 0 Z " fill="#253E4F" transform="translate(212,10)"/>
<path d="M0 0 C1.32 0 2.64 0 4 0 C4 1.98 4 3.96 4 6 C5.65 6 7.3 6 9 6 C9 7.32 9 8.64 9 10 C7.35 10 5.7 10 4 10 C4.33 14.62 4.66 19.24 5 24 C6.65 24.33 8.3 24.66 10 25 C10 25.99 10 26.98 10 28 C3.62658228 27.39873418 3.62658228 27.39873418 1.28125 25.90625 C-0.70651383 22.94884528 -0.28396392 20.31735591 -0.1875 16.8125 C-0.16042969 15.54019531 -0.13335937 14.26789062 -0.10546875 12.95703125 C-0.07066406 11.98121094 -0.03585937 11.00539063 0 10 C-0.99 10 -1.98 10 -3 10 C-3.33 8.68 -3.66 7.36 -4 6 C-2.68 6 -1.36 6 0 6 C0 4.02 0 2.04 0 0 Z " fill="#204758" transform="translate(281,4)"/>
<path d="M0 0 C2.4375 1.875 2.4375 1.875 4 4 C4 4.66 4 5.32 4 6 C3.443125 5.855625 2.88625 5.71125 2.3125 5.5625 C1.549375 5.376875 0.78625 5.19125 0 5 C-0.825 4.7525 -1.65 4.505 -2.5 4.25 C-5.02575346 3.80129336 -5.02575346 3.80129336 -7.3125 4.9375 C-9.56721129 7.69325824 -9.51727847 9.64376596 -9.3125 13.125 C-9.08658068 15.09253547 -9.08658068 15.09253547 -7.9375 17 C-4.97912322 18.52690415 -2.26283401 18.18468872 1 18 C1 17.34 1 16.68 1 16 C2.32 16.66 3.64 17.32 5 18 C3.625 20.0625 3.625 20.0625 1 22 C-3.16952649 22.45703073 -7.17686004 22.17634973 -10.76171875 19.86328125 C-13.28969542 17.2194088 -14.35171737 14.5595063 -14.625 11 C-14.34029347 6.36462181 -12.25278384 4.17533661 -9 1 C-5.90826248 -0.54586876 -3.40570448 -0.29359521 0 0 Z " fill="#133442" transform="translate(271,10)"/>
<path d="M0 0 C3.875 1.875 3.875 1.875 5 3 C5.0983721 4.33043625 5.13078592 5.66593344 5.1328125 7 C5.13474609 8.2065625 5.13474609 8.2065625 5.13671875 9.4375 C5.13285156 10.283125 5.12898438 11.12875 5.125 12 C5.12886719 12.845625 5.13273437 13.69125 5.13671875 14.5625 C5.13542969 15.366875 5.13414063 16.17125 5.1328125 17 C5.13168457 17.7425 5.13055664 18.485 5.12939453 19.25 C5 21 5 21 4 22 C1.5 22.125 1.5 22.125 -1 22 C-3.14101289 19.85898711 -2.35108505 14.48237136 -2.4296875 11.45898438 C-2.50413959 9.19643317 -2.50413959 9.19643317 -3 6 C-3.99 5.34 -4.98 4.68 -6 4 C-4.35 3.67 -2.7 3.34 -1 3 C-0.67 2.01 -0.34 1.02 0 0 Z " fill="#114555" transform="translate(118,11)"/>
<path d="M0 0 C0.66 0 1.32 0 2 0 C1.67 1.65 1.34 3.3 1 5 C8.92 4.505 8.92 4.505 17 4 C17 4.99 17 5.98 17 7 C11.72 7 6.44 7 1 7 C2.76851036 10.18074165 2.76851036 10.18074165 5 13 C10.32673036 13.33856828 10.32673036 13.33856828 15 11 C15.66 11.33 16.32 11.66 17 12 C16.06788763 14.33028092 15.30996602 15.75891532 13.3125 17.3125 C9.6953097 18.3878809 7.61845524 18.12296887 4 17 C0.12937386 13.51050773 -1.83195486 10.30234984 -2.5 5.125 C-2 2 -2 2 0 0 Z " fill="#0D2436" transform="translate(237,15)"/>
<path d="M0 0 C0.33 7.26 0.66 14.52 1 22 C-0.98 22 -2.96 22 -5 22 C-7.19286344 18.51721688 -6.8540848 16.92879006 -6 13 C-6.03294748 10.4300965 -6.12518798 7.87136209 -6.2578125 5.3046875 C-6 3 -6 3 -4.6796875 1.1953125 C-3 0 -3 0 0 0 Z " fill="#083C4C" transform="translate(67,11)"/>
<path d="M0 0 C1.6484375 1.015625 1.6484375 1.015625 4.0234375 3.203125 C4.0234375 4.193125 4.0234375 5.183125 4.0234375 6.203125 C0.0234375 6.203125 0.0234375 6.203125 -2.3515625 4.703125 C-5.62083857 2.83496724 -7.2617024 2.59661723 -10.9765625 3.203125 C-13.89808952 5.0375722 -16.4092234 7.06844681 -17.9765625 10.203125 C-19.2965625 10.203125 -20.6165625 10.203125 -21.9765625 10.203125 C-21.9765625 13.173125 -21.9765625 16.143125 -21.9765625 19.203125 C-22.3065625 19.203125 -22.6365625 19.203125 -22.9765625 19.203125 C-23.43857435 14.10046079 -23.80183089 9.65803737 -20.8515625 5.265625 C-15.65712924 -0.86930454 -7.59782052 -3.06315294 0 0 Z " fill="#1A3F4C" transform="translate(151.9765625,2.796875)"/>
<path d="M0 0 C2.625 0.375 2.625 0.375 5 1 C5.05429959 2.74965358 5.09292823 4.49979787 5.125 6.25 C5.14820312 7.22453125 5.17140625 8.1990625 5.1953125 9.203125 C4.99220535 12.11161933 4.77256617 13.68611123 3 16 C0.375 16.75 0.375 16.75 -2 17 C-2.05383848 14.54137599 -2.09359038 12.0839245 -2.125 9.625 C-2.14175781 8.92632812 -2.15851563 8.22765625 -2.17578125 7.5078125 C-2.19344267 5.67102514 -2.10303261 3.83398037 -2 2 C-1.34 1.34 -0.68 0.68 0 0 Z " fill="#D8E4E3" transform="translate(97,16)"/>
<path d="M0 0 C3.5 0.25 3.5 0.25 5.5 2.25 C5.03846154 8.71153846 5.03846154 8.71153846 2.5 11.25 C-0.30984248 11.61023622 -1.88241919 11.63332602 -4.3125 10.125 C-6.02849028 7.41554166 -5.833728 5.38704316 -5.5 2.25 C-3.5 0.25 -3.5 0.25 0 0 Z " fill="#CADCDB" transform="translate(55.5,15.75)"/>
<path d="M0 0 C3.84108454 1.00013145 6.39239018 3.72724407 9.0703125 6.5390625 C8.45753638 9.50081373 7.81658728 10.91965033 6.0703125 13.5390625 C5.8021875 12.4253125 5.5340625 11.3115625 5.2578125 10.1640625 C4.41222231 6.32065299 4.41222231 6.32065299 1.0703125 4.5390625 C-3.00822245 4.68737286 -5.2171115 4.93611358 -8.3671875 7.6015625 C-8.8828125 8.2409375 -9.3984375 8.8803125 -9.9296875 9.5390625 C-10.2596875 7.8890625 -10.5896875 6.2390625 -10.9296875 4.5390625 C-7.53987697 1.14925197 -4.8855071 -0.2043368 0 0 Z " fill="#204457" transform="translate(172.9296875,9.4609375)"/>
<path d="M0 0 C0.99 0 1.98 0 3 0 C3 1.32 3 2.64 3 4 C4.32 4.33 5.64 4.66 7 5 C6.51917969 5.34675781 6.03835937 5.69351562 5.54296875 6.05078125 C3.24641888 8.95199235 3.47973801 11.54171147 3.3125 15.1875 C3.24675781 16.45980469 3.18101562 17.73210938 3.11328125 19.04296875 C3.05720703 20.50669922 3.05720703 20.50669922 3 22 C2.01 22 1.02 22 0 22 C0 14.74 0 7.48 0 0 Z " fill="#2A495C" transform="translate(187,10)"/>
<path d="M0 0 C2.4375 1.875 2.4375 1.875 4 4 C4 4.66 4 5.32 4 6 C3.443125 5.855625 2.88625 5.71125 2.3125 5.5625 C1.549375 5.376875 0.78625 5.19125 0 5 C-0.825 4.7525 -1.65 4.505 -2.5 4.25 C-5.03400139 3.77992824 -5.03400139 3.77992824 -7.25 5.0625 C-9.54246226 7.60058322 -9.70217192 9.6494341 -10 13 C-10.33 13 -10.66 13 -11 13 C-11.33 11.35 -11.66 9.7 -12 8 C-12.99 8.495 -12.99 8.495 -14 9 C-11.79651863 1.78860644 -7.51912293 -1.09369061 0 0 Z " fill="#2D505E" transform="translate(271,10)"/>
<path d="M0 0 C3.875 1.875 3.875 1.875 5 3 C5.08631874 4.34267413 5.10706473 5.68974322 5.09765625 7.03515625 C5.09443359 7.84404297 5.09121094 8.65292969 5.08789062 9.48632812 C5.07951172 10.33646484 5.07113281 11.18660156 5.0625 12.0625 C5.05798828 12.91650391 5.05347656 13.77050781 5.04882812 14.65039062 C5.03700373 16.76695663 5.01906769 18.88348685 5 21 C4.67 21 4.34 21 4 21 C3.67 15.39 3.34 9.78 3 4 C2.34 4 1.68 4 1 4 C0.34 9.61 -0.32 15.22 -1 21 C-1.33 21 -1.66 21 -2 21 C-2.03738281 19.94039062 -2.07476562 18.88078125 -2.11328125 17.7890625 C-2.17893258 16.40100576 -2.24538021 15.01298651 -2.3125 13.625 C-2.33505859 12.92632812 -2.35761719 12.22765625 -2.38085938 11.5078125 C-2.46984296 9.22711059 -2.46984296 9.22711059 -3 6 C-3.99 5.34 -4.98 4.68 -6 4 C-4.35 3.67 -2.7 3.34 -1 3 C-0.67 2.01 -0.34 1.02 0 0 Z " fill="#416E76" transform="translate(118,11)"/>
<path d="M0 0 C0.66 0 1.32 0 2 0 C2 1.32 2 2.64 2 4 C2.66 4 3.32 4 4 4 C3.67 4.99 3.34 5.98 3 7 C2.77439324 9.39254576 2.59151405 11.78928123 2.4375 14.1875 C2.35371094 15.45980469 2.26992187 16.73210938 2.18359375 18.04296875 C2.12300781 19.01878906 2.06242188 19.99460937 2 21 C1.01 21 0.02 21 -1 21 C-1.10808032 13.90272572 -0.93854006 7.03905044 0 0 Z " fill="#152F3C" transform="translate(213,11)"/>
<path d="M0 0 C2.4375 0.75 2.4375 0.75 4.4375 2.75 C4.4375 3.74 4.4375 4.73 4.4375 5.75 C0.8075 5.75 -2.8225 5.75 -6.5625 5.75 C-5.47734541 1.40938165 -4.74860253 -0.4632783 0 0 Z " fill="#D9EBEC" transform="translate(245.5625,13.25)"/>
<path d="M0 0 C0.66 0.33 1.32 0.66 2 1 C1.34 1.66 0.68 2.32 0 3 C-1.03842565 5.31648799 -2.0421975 7.64903024 -3 10 C-4.32 10 -5.64 10 -7 10 C-7 12.97 -7 15.94 -7 19 C-7.33 19 -7.66 19 -8 19 C-8.57405178 12.65991699 -8.44230619 8.44143957 -4.38671875 3.375 C-3 2 -3 2 0 0 Z " fill="#2C5361" transform="translate(137,3)"/>
<path d="M0 0 C0.99 0.33 1.98 0.66 3 1 C2.06788763 3.33028092 1.30996602 4.75891532 -0.6875 6.3125 C-3.9760002 7.29016222 -6.67519127 6.63938629 -10 6 C-9.34 5.67 -8.68 5.34 -8 5 C-8 4.34 -8 3.68 -8 3 C-6.865625 2.690625 -5.73125 2.38125 -4.5625 2.0625 C-1.21224901 1.37075469 -1.21224901 1.37075469 0 0 Z " fill="#355765" transform="translate(251,26)"/>
<path d="M0 0 C0.99 0.33 1.98 0.66 3 1 C1.55609075 4.80666984 -0.34952803 6.26602582 -4 8 C-4.66 7.67 -5.32 7.34 -6 7 C-6 6.01 -6 5.02 -6 4 C-3.5625 2.375 -3.5625 2.375 -1 1 C-0.67 0.67 -0.34 0.34 0 0 Z " fill="#1D4555" transform="translate(153,24)"/>
<path d="M0 0 C0.66 0 1.32 0 2 0 C3.91847864 2.87771795 5.50079488 5.88626628 7 9 C5.25 8.9375 5.25 8.9375 3 8 C1.40498463 5.75835678 0.25456982 3.46433357 -1 1 C-0.67 0.67 -0.34 0.34 0 0 Z " fill="#162E3E" transform="translate(236,22)"/>
<path d="M0 0 C2.01822917 0.06510417 4.03645833 0.13020833 6.0546875 0.1953125 C6.0546875 0.8553125 6.0546875 1.5153125 6.0546875 2.1953125 C4.7965625 2.4840625 3.5384375 2.7728125 2.2421875 3.0703125 C-0.7992524 3.76834789 -2.25201128 4.39977835 -4.9453125 6.1953125 C-3.78219775 0.37973873 -3.78219775 0.37973873 0 0 Z " fill="#10394D" transform="translate(140.9453125,2.8046875)"/>
<path d="M0 0 C2.4375 0.6875 2.4375 0.6875 5 2 C5.8125 4.625 5.8125 4.625 6 7 C5.01 7 4.02 7 3 7 C0.8125 4.5 0.8125 4.5 -1 2 C-0.67 1.34 -0.34 0.68 0 0 Z " fill="#20414E" transform="translate(225,11)"/>
<path d="M0 0 C6.48292295 -0.3669579 6.48292295 -0.3669579 8.9375 1.375 C10 3 10 3 10 5 C6.58978257 4.21302675 3.31114834 3.12880057 0 2 C0 1.34 0 0.68 0 0 Z " fill="#102B3C" transform="translate(265,11)"/>
<path d="M0 0 C1.32 0.66 2.64 1.32 4 2 C2.25 4 2.25 4 0 6 C-1.32 6 -2.64 6 -4 6 C-4 5.34 -4 4.68 -4 4 C-2.68 3.34 -1.36 2.68 0 2 C0 1.34 0 0.68 0 0 Z " fill="#204459" transform="translate(272,26)"/>
<path d="M0 0 C2.31 0.66 4.62 1.32 7 2 C7 2.99 7 3.98 7 5 C4.69 4.67 2.38 4.34 0 4 C0 2.68 0 1.36 0 0 Z " fill="#06263B" transform="translate(284,27)"/>
<path d="M0 0 C0.33 0 0.66 0 1 0 C1.17942163 3.94727588 1.09350689 6.5980513 -1 10 C-1.66 10 -2.32 10 -3 10 C-3.3648363 5.74357648 -2.47460354 3.46444495 0 0 Z " fill="#133B4C" transform="translate(181,19)"/>
<path d="M0 0 C0 0.66 0 1.32 0 2 C0.66 2.33 1.32 2.66 2 3 C-0.97 5.475 -0.97 5.475 -4 8 C-4.6875 5.6875 -4.6875 5.6875 -5 3 C-3.40083326 0.79162689 -2.76966516 0 0 0 Z " fill="#275263" transform="translate(167,11)"/>
<path d="M0 0 C0.33 0 0.66 0 1 0 C1 4.95 1 9.9 1 15 C0.67 15 0.34 15 0 15 C-0.38863565 12.87745145 -0.76053209 10.75183172 -1.125 8.625 C-1.33382812 7.44164062 -1.54265625 6.25828125 -1.7578125 5.0390625 C-1.83773437 4.03617188 -1.91765625 3.03328125 -2 2 C-1.34 1.34 -0.68 0.68 0 0 Z " fill="#01202B" transform="translate(79,7)"/>
<path d="M0 0 C1.58246707 -0.08153933 3.16616273 -0.13943557 4.75 -0.1875 C6.07257813 -0.23970703 6.07257813 -0.23970703 7.421875 -0.29296875 C10.44671583 0.05076316 11.75583602 1.00227459 14 3 C11.69 3.33 9.38 3.66 7 4 C7 3.01 7 2.02 7 1 C4.69 1 2.38 1 0 1 C0 0.67 0 0.34 0 0 Z " fill="#255664" transform="translate(140,2)"/>
<path d="M0 0 C2.31 0 4.62 0 7 0 C6.67 0.99 6.34 1.98 6 3 C3.69 2.67 1.38 2.34 -1 2 C-0.67 1.34 -0.34 0.68 0 0 Z " fill="#0D3143" transform="translate(141,29)"/>
<path d="M0 0 C3.625 -0.1875 3.625 -0.1875 7 0 C6.67 0.66 6.34 1.32 6 2 C3.35139573 2.59355614 0.70802678 2.74209269 -2 3 C-1.34 2.01 -0.68 1.02 0 0 Z " fill="#10364C" transform="translate(242,11)"/>
</svg>
