<?xml version="1.0" standalone="no"?>
<!DOCTYPE svg PUBLIC "-//W3C//DTD SVG 20010904//EN"
 "http://www.w3.org/TR/2001/REC-SVG-20010904/DTD/svg10.dtd">
<svg version="1.0" xmlns="http://www.w3.org/2000/svg"
 width="1024.000000pt" height="1024.000000pt" viewBox="0 0 1024.000000 1024.000000"
 preserveAspectRatio="xMidYMid meet">

<g transform="translate(0.000000,1024.000000) scale(0.100000,-0.100000)"
fill="#000000" stroke="none">
<path d="M5030 8845 c-381 -53 -727 -189 -1005 -395 -176 -131 -277 -232 -414
-414 -167 -223 -207 -293 -280 -493 -104 -287 -134 -449 -135 -743 -1 -184 2
-220 27 -354 103 -557 401 -1028 835 -1324 387 -263 801 -394 1247 -394 396
-1 735 91 1093 295 225 129 529 413 671 627 126 189 226 410 275 606 66 264
71 304 71 544 0 268 -14 371 -82 589 -130 421 -378 772 -744 1049 -360 274
-829 424 -1308 421 -86 -1 -199 -7 -251 -14z m417 -85 c236 -18 474 -75 672
-160 232 -100 433 -234 599 -397 82 -80 92 -95 121 -171 54 -140 65 -203 65
-357 0 -160 -13 -221 -73 -350 -49 -106 -132 -193 -275 -292 -97 -67 -324
-233 -725 -531 -276 -204 -333 -233 -486 -240 -115 -5 -188 10 -301 62 -99 46
-177 100 -604 421 -206 154 -408 305 -447 334 -122 89 -208 206 -262 356 -23
64 -25 84 -25 245 -1 173 -1 176 33 275 19 55 46 125 62 155 45 89 172 202
373 330 230 147 460 239 711 285 238 43 357 50 562 35z m-1812 -871 c-19 -83
-20 -312 -1 -411 8 -40 24 -98 35 -129 45 -119 161 -263 280 -347 36 -25 224
-164 416 -307 519 -387 607 -447 720 -492 65 -26 80 -27 220 -28 l150 0 86 39
c79 35 447 286 578 395 62 50 274 205 409 298 240 165 281 204 366 346 82 138
119 343 98 537 -7 60 -15 117 -18 127 -4 10 6 1 21 -20 42 -61 190 -364 224
-460 41 -118 88 -334 94 -433 l5 -80 -28 4 c-73 11 -290 -46 -453 -118 -158
-70 -345 -200 -682 -470 -277 -223 -441 -331 -579 -383 -69 -26 -99 -31 -203
-35 -203 -7 -351 24 -496 108 -108 61 -360 247 -710 523 -310 244 -485 325
-773 358 l-107 13 6 86 c16 214 105 515 209 705 72 131 141 246 145 242 2 -2
-3 -33 -12 -68z m3705 -1080 c0 -26 -19 -207 -25 -235 -4 -19 -14 -22 -82 -28
-116 -10 -226 -41 -338 -95 -116 -57 -335 -199 -449 -292 -235 -190 -449 -355
-529 -407 -105 -68 -241 -128 -356 -158 -100 -26 -113 -26 -285 -21 -107 3
-211 12 -254 21 -159 35 -366 163 -697 431 -495 402 -643 485 -937 526 -100
14 -94 3 -105 172 l-6 100 119 -6 c264 -14 392 -78 834 -418 463 -357 632
-474 754 -523 161 -64 394 -73 556 -21 182 58 316 143 695 439 306 239 322
251 455 334 126 78 267 144 345 162 70 17 212 38 263 39 36 1 42 -2 42 -20z
m-3838 -378 c195 -50 398 -169 673 -392 482 -392 665 -505 897 -554 163 -35
338 -28 518 21 210 57 338 136 740 454 303 240 519 379 670 432 79 27 183 48
242 48 l50 0 -7 -37 c-9 -51 -55 -214 -67 -235 -5 -12 -20 -18 -42 -18 -60 0
-186 -39 -277 -86 -93 -48 -339 -227 -522 -379 -228 -190 -435 -322 -627 -399
-109 -44 -238 -67 -420 -73 -153 -5 -175 -3 -295 22 -259 54 -401 130 -728
389 -381 303 -462 361 -602 430 -134 67 -194 86 -265 86 -24 0 -42 5 -45 13
-30 99 -67 231 -72 260 l-6 37 55 0 c30 0 89 -9 130 -19z m3668 -377 c0 -17
-78 -178 -125 -259 -73 -123 -131 -200 -240 -314 -325 -341 -666 -531 -1125
-627 -100 -21 -464 -30 -607 -15 -279 29 -597 135 -832 278 -349 212 -571 450
-752 808 -41 81 -50 108 -41 114 59 36 362 -122 551 -288 74 -65 263 -212 413
-322 238 -174 457 -280 642 -309 98 -16 367 -8 486 15 187 36 380 117 560 233
41 27 143 102 225 168 443 354 588 450 755 500 83 25 90 27 90 18z"/>
<path d="M4640 8244 c-139 -27 -279 -108 -374 -216 -54 -60 -118 -185 -141
-273 -46 -180 16 -417 147 -561 27 -29 104 -95 171 -145 67 -51 208 -159 312
-240 322 -248 385 -281 540 -283 63 -1 105 4 141 17 74 26 237 125 319 194 39
33 186 146 327 251 273 202 297 226 353 347 51 109 69 186 68 300 -3 264 -151
478 -402 579 -70 28 -86 30 -201 30 -140 1 -194 -11 -318 -70 -82 -39 -185
-130 -234 -205 -17 -27 -34 -49 -37 -49 -3 0 -25 29 -48 65 -45 67 -137 151
-206 186 -107 55 -169 71 -282 74 -60 2 -121 1 -135 -1z m228 -99 c134 -32
262 -121 333 -232 48 -76 48 -68 34 -282 -6 -93 -4 -128 10 -192 16 -68 16
-83 5 -105 -27 -50 -177 -181 -315 -274 -77 -52 -150 -106 -162 -119 l-23 -24
-42 39 c-24 22 -104 83 -179 136 -203 144 -280 243 -314 406 -45 211 19 394
183 528 141 115 307 157 470 119z m1173 -8 c185 -63 322 -213 359 -394 20 -93
8 -245 -25 -323 -62 -148 -78 -166 -275 -314 -247 -185 -253 -189 -263 -162
-3 8 -75 66 -161 130 -165 124 -236 188 -287 262 l-32 47 13 118 c8 75 10 149
5 201 -4 46 -7 91 -7 101 1 29 72 138 129 198 57 60 170 121 267 145 84 20
202 17 277 -9z m-545 -1057 c57 -49 139 -114 183 -145 45 -31 83 -60 85 -64 6
-9 -96 -91 -204 -164 -99 -68 -167 -90 -268 -90 -65 1 -82 5 -165 45 -96 47
-305 195 -290 207 17 15 161 120 241 177 100 70 212 185 212 217 1 18 9 12 52
-36 28 -32 97 -98 154 -147z"/>
<path d="M7810 6748 c-11 -12 -20 -35 -20 -53 0 -63 71 -88 109 -39 27 35 27
65 -2 92 -30 28 -61 28 -87 0z"/>
<path d="M3600 4424 c-13 -4 -14 -23 -8 -132 3 -70 7 -226 7 -347 1 -121 5
-226 10 -234 6 -9 30 -14 73 -15 l63 -1 3 145 c3 179 -11 566 -21 576 -8 9
-105 15 -127 8z"/>
<path d="M2480 4399 c-237 -47 -358 -295 -253 -517 57 -120 154 -183 293 -190
118 -6 179 18 258 99 31 33 57 63 57 68 0 5 -24 28 -54 51 l-53 42 -30 -36
c-68 -82 -170 -100 -254 -43 -111 75 -127 234 -34 327 78 78 193 75 281 -6 25
-24 50 -44 55 -44 6 0 29 20 53 44 l44 45 -33 40 c-69 89 -218 142 -330 120z"/>
<path d="M5155 4394 c-108 -28 -127 -37 -185 -91 -85 -78 -112 -135 -118 -243
-5 -113 19 -180 90 -250 98 -96 221 -131 341 -96 56 16 199 112 194 130 -2 5
-18 17 -37 27 l-34 18 -32 -33 c-123 -127 -339 -86 -424 80 -65 126 4 291 148
360 83 39 211 11 291 -65 l34 -32 31 30 30 31 -34 35 c-68 70 -215 119 -295
99z"/>
<path d="M8311 4268 l2 -73 -43 3 -43 3 7 -32 c3 -17 6 -38 6 -46 0 -12 8 -14
34 -9 l34 6 4 -147 c3 -122 7 -155 23 -188 29 -58 75 -85 146 -85 55 0 59 2
65 27 11 42 -6 58 -64 58 -81 0 -84 7 -90 190 l-5 156 67 -7 66 -7 0 42 0 41
-60 0 -59 0 -3 68 -3 67 -43 3 -43 3 2 -73z"/>
<path d="M4130 4214 c-19 -8 -49 -26 -67 -40 -31 -24 -33 -24 -33 -5 0 26 -8
30 -79 37 l-60 7 2 -249 c2 -137 6 -255 10 -261 5 -8 32 -13 73 -13 35 0 64 1
64 3 1 1 7 73 14 160 l12 157 34 35 c39 40 75 45 111 16 23 -18 25 -29 34
-188 l10 -168 49 -3 c100 -6 96 -12 96 153 0 156 6 183 50 208 39 24 67 21 97
-9 l26 -26 -7 -146 c-4 -81 -4 -155 -1 -165 6 -14 19 -17 70 -17 l62 0 7 77
c9 114 7 263 -5 306 -16 58 -74 112 -142 132 -68 20 -108 11 -152 -35 l-28
-29 -33 29 c-56 49 -146 63 -214 34z"/>
<path d="M3060 4195 c-96 -56 -139 -125 -147 -240 -6 -82 5 -125 47 -184 69
-94 225 -117 303 -43 23 22 29 24 37 12 5 -8 10 -23 10 -34 0 -17 6 -18 70
-14 39 3 72 7 73 9 1 2 1 118 -1 257 l-3 252 -70 0 -69 0 0 -30 0 -30 -29 32
c-27 30 -34 33 -102 36 -65 2 -80 0 -119 -23z m201 -141 c53 -51 50 -145 -6
-201 -28 -28 -40 -33 -83 -33 -38 0 -55 5 -76 25 -54 50 -63 134 -19 186 54
64 131 74 184 23z"/>
<path d="M6953 4209 c-17 -5 -56 -31 -85 -58 l-53 -49 0 47 c0 44 -1 46 -31
49 l-31 3 -6 -137 c-9 -187 -8 -336 2 -352 4 -8 19 -12 32 -10 24 3 24 4 29
160 l5 157 50 52 c81 83 114 90 186 37 56 -41 63 -67 69 -243 l5 -160 25 0 25
0 3 155 c3 223 -8 256 -107 319 -58 36 -78 41 -118 30z"/>
<path d="M5738 4201 c-110 -36 -188 -145 -188 -260 0 -83 93 -204 177 -232 50
-16 140 -7 196 20 32 16 62 42 90 79 37 49 42 61 45 122 2 38 -1 85 -8 106
-16 47 -82 120 -134 146 -44 23 -136 32 -178 19z m135 -75 c69 -29 117 -103
117 -176 0 -34 -32 -100 -61 -127 -13 -12 -41 -29 -61 -38 -107 -44 -229 25
-244 137 -19 140 124 258 249 204z"/>
<path d="M6341 4195 c-19 -8 -49 -32 -68 -52 l-35 -36 3 34 c4 44 -6 59 -39
59 l-27 0 -3 -229 c-2 -126 -1 -239 3 -250 4 -14 15 -21 33 -21 l27 0 -3 87
c-2 49 -1 121 3 162 6 68 10 77 48 118 67 73 113 88 182 59 63 -27 69 -49 75
-251 l5 -180 27 -3 c26 -3 26 -3 33 83 4 47 6 137 3 199 -5 127 -21 168 -84
206 -45 29 -137 36 -183 15z"/>
<path d="M7404 4191 c-45 -20 -105 -88 -129 -144 -8 -20 -15 -63 -15 -96 0
-53 4 -66 43 -122 57 -85 110 -121 186 -127 41 -3 68 1 92 12 36 17 116 83
109 89 -3 2 -18 11 -33 21 -28 17 -28 17 -68 -18 -33 -30 -46 -36 -85 -36 -25
0 -57 6 -72 14 -48 25 -102 94 -102 130 0 13 23 15 175 13 194 -2 195 -2 195
61 0 70 -46 140 -129 193 -53 34 -106 37 -167 10z m124 -65 c40 -21 81 -68 91
-104 l10 -32 -150 0 c-164 0 -165 0 -133 61 18 35 97 89 131 89 13 0 36 -6 51
-14z"/>
<path d="M7949 4201 c-101 -21 -189 -129 -189 -233 0 -110 41 -178 139 -232
98 -53 206 -40 276 34 l27 28 -41 22 -42 21 -30 -31 c-25 -24 -39 -30 -75 -30
-70 0 -121 35 -158 107 -46 91 13 214 116 244 43 12 86 -3 123 -41 56 -58 95
-27 51 40 -40 61 -114 88 -197 71z"/>
<path d="M7126 3448 c-3 -13 -6 -69 -6 -125 0 -96 1 -103 20 -103 17 0 19 8
22 68 l3 67 23 -37 c13 -21 28 -38 33 -38 5 0 22 18 37 40 29 42 47 52 37 20
-3 -11 -3 -40 1 -65 5 -35 10 -45 25 -45 17 0 19 9 19 98 0 69 -4 104 -14 118
-8 10 -16 17 -19 14 -2 -3 -23 -26 -45 -53 l-41 -47 -35 55 c-39 60 -51 67
-60 33z"/>
<path d="M3696 3369 c-59 -126 -65 -149 -38 -149 15 0 24 10 32 36 10 30 16
35 34 30 11 -3 31 -6 42 -6 16 0 23 -8 28 -30 7 -35 46 -44 46 -11 0 28 -59
177 -80 203 l-19 23 -45 -96z m59 -19 c15 -30 15 -30 -10 -30 -20 0 -25 5 -25
23 0 21 7 37 16 37 2 0 10 -13 19 -30z"/>
<path d="M4346 3445 c-3 -9 -6 -32 -6 -51 0 -30 -3 -34 -27 -34 -57 0 -72 10
-75 48 -2 26 -8 38 -20 40 -16 3 -18 -7 -18 -112 0 -109 1 -116 20 -116 17 0
20 7 20 50 l0 50 50 0 50 0 0 -50 c0 -44 3 -50 20 -50 20 0 21 5 18 117 -2 75
-7 118 -14 120 -6 2 -14 -3 -18 -12z"/>
<path d="M4890 3345 l0 -115 28 0 c63 0 102 12 102 31 0 16 -8 19 -45 19 l-45
0 0 78 c0 72 -9 102 -32 102 -4 0 -8 -52 -8 -115z"/>
<path d="M5038 3441 c-8 -28 3 -41 31 -41 26 0 29 -3 35 -52 3 -29 6 -70 6
-90 0 -31 4 -38 20 -38 18 0 20 8 22 93 l3 92 29 0 c16 1 31 5 33 10 7 23 -17
32 -94 38 -70 4 -82 3 -85 -12z"/>
<path d="M6788 3389 l-3 -72 -33 52 c-34 51 -66 81 -89 81 -15 0 -17 -46 -6
-152 5 -59 9 -68 26 -68 18 0 19 5 15 60 -2 33 -1 60 4 60 4 0 8 -4 8 -8 0
-15 102 -122 116 -122 12 0 14 20 12 118 -3 112 -4 117 -25 120 -21 3 -22 -1
-25 -69z"/>
<path d="M7747 3453 c-4 -3 -7 -34 -7 -67 l0 -61 -21 35 c-27 45 -69 90 -85
90 -17 0 -24 -35 -24 -132 0 -81 2 -88 20 -88 24 0 35 36 26 90 -3 22 -5 40
-3 40 2 0 27 -32 57 -70 29 -39 58 -69 64 -67 17 6 20 218 4 229 -16 10 -23
10 -31 1z"/>
<path d="M2747 3443 c-10 -16 -19 -162 -12 -192 4 -21 12 -31 25 -31 17 0 20
9 22 78 l3 77 20 -40 c25 -50 45 -54 68 -15 25 41 37 30 37 -34 0 -45 3 -55
19 -59 18 -4 20 2 23 93 2 54 2 105 0 114 -6 28 -35 18 -72 -26 l-36 -41 -33
41 c-31 39 -54 52 -64 35z"/>
<path d="M3030 3340 l0 -110 65 0 c63 0 65 1 65 25 0 23 -4 25 -45 25 -38 0
-45 3 -45 20 0 14 7 20 23 20 30 0 67 11 67 19 0 4 -19 11 -42 17 -28 6 -44
15 -46 27 -3 14 4 17 48 17 48 0 51 2 48 23 -3 20 -9 22 -70 25 l-68 3 0 -111z"/>
<path d="M3376 3388 l-8 -63 -52 59 c-74 84 -86 77 -86 -54 0 -93 1 -100 20
-100 17 0 19 8 22 65 l3 66 49 -65 c47 -63 71 -83 80 -68 2 4 5 54 7 112 3 90
2 105 -12 108 -13 2 -18 -10 -23 -60z"/>
<path d="M3476 3434 c-11 -28 -7 -34 23 -34 l29 0 7 -90 c5 -67 11 -90 21 -90
10 0 14 13 14 44 0 24 3 64 6 90 6 43 9 46 35 46 24 0 29 4 29 25 0 25 -1 25
-79 25 -63 0 -80 -3 -85 -16z"/>
<path d="M3906 3404 c-3 -26 -6 -75 -6 -110 l0 -64 60 0 c33 0 63 0 68 0 4 0
8 11 10 25 3 24 1 25 -42 25 l-45 0 -3 82 c-2 67 -6 83 -19 86 -12 2 -18 -8
-23 -44z"/>
<path d="M4455 3340 l0 -110 68 0 c60 0 67 2 67 20 0 17 -7 20 -45 20 -41 0
-45 2 -45 24 0 27 27 41 60 31 16 -5 20 -2 20 14 0 18 -6 21 -40 21 -36 0 -40
3 -40 25 0 23 3 25 50 25 43 0 50 3 50 20 0 18 -7 20 -72 20 l-73 0 0 -110z"/>
<path d="M4711 3414 c-26 -43 -71 -152 -71 -170 0 -6 7 -15 16 -18 11 -4 19 3
27 24 10 27 16 30 54 30 37 0 43 -3 49 -25 9 -36 44 -34 44 2 0 26 -79 193
-92 193 -3 0 -16 -16 -27 -36z m34 -71 c5 -19 2 -23 -14 -23 -15 0 -21 6 -21
23 0 45 21 44 35 0z"/>
<path d="M5260 3335 c0 -107 1 -115 19 -115 17 0 20 8 23 48 l3 47 43 3 42 3
0 -51 c0 -44 3 -51 18 -48 18 3 29 61 31 171 1 51 -1 57 -19 57 -16 0 -20 -7
-20 -35 0 -28 -5 -38 -25 -47 -41 -18 -75 3 -75 47 0 28 -4 35 -20 35 -19 0
-20 -7 -20 -115z"/>
<path d="M5670 3413 c-28 -47 -72 -172 -64 -184 11 -19 33 -8 39 21 6 28 10
30 51 30 41 0 46 -3 55 -30 11 -32 16 -35 36 -22 9 6 6 25 -13 77 -27 75 -63
145 -75 145 -4 0 -17 -17 -29 -37z m38 -68 c11 -23 10 -25 -14 -25 -20 0 -25
4 -20 16 3 9 6 20 6 25 0 18 17 8 28 -16z"/>
<path d="M5855 3376 c-8 -90 1 -156 21 -156 9 0 14 11 14 34 0 31 3 34 44 45
70 17 97 73 58 121 -14 18 -32 24 -74 28 l-55 4 -8 -76z m108 17 c15 -9 6 -24
-25 -43 -17 -10 -35 -17 -40 -14 -10 6 -11 58 -2 67 7 6 49 0 67 -10z"/>
<path d="M6102 3443 l-33 -4 3 -112 c2 -92 6 -112 18 -112 9 0 18 15 24 41 8
39 11 42 48 47 51 7 68 22 68 62 0 61 -45 89 -128 78z m85 -58 c7 -19 -23 -44
-54 -45 -19 0 -23 5 -23 30 0 28 3 30 35 30 23 0 38 -6 42 -15z"/>
<path d="M6310 3420 c-48 -51 -47 -122 2 -170 39 -40 85 -40 120 -2 58 62 63
109 17 165 -26 31 -36 37 -71 37 -31 0 -46 -6 -68 -30z m87 -25 c29 -20 37
-59 18 -95 -21 -41 -59 -41 -80 0 -20 39 -19 66 5 90 24 24 29 24 57 5z"/>
<path d="M6540 3340 c0 -103 1 -110 20 -110 19 0 20 7 20 110 0 103 -1 110
-20 110 -19 0 -20 -7 -20 -110z"/>
<path d="M6896 3434 c-11 -29 -6 -34 29 -34 l34 0 3 -87 c3 -74 6 -88 21 -91
15 -3 17 7 17 93 l0 97 35 -6 c33 -6 35 -5 35 19 0 25 -1 25 -84 25 -67 0 -85
-3 -90 -16z"/>
<path d="M7400 3340 l0 -110 75 0 c68 0 75 2 75 20 0 16 -7 20 -37 20 -47 0
-66 12 -61 36 2 14 13 20 46 22 28 2 42 8 42 18 0 10 -12 14 -45 14 -41 0 -45
2 -45 25 0 23 3 25 51 25 43 0 50 3 47 18 -3 14 -16 18 -76 20 l-72 3 0 -111z"/>
<path d="M7840 3425 c0 -22 3 -25 26 -19 36 9 44 -7 44 -97 0 -67 2 -77 19
-82 18 -4 20 3 26 89 7 92 8 94 31 88 33 -8 47 3 34 27 -9 16 -22 19 -95 19
-84 0 -85 0 -85 -25z"/>
<path d="M2406 3327 c-27 -20 -12 -37 32 -37 44 0 72 14 57 29 -19 19 -69 23
-89 8z"/>
<path d="M8187 3333 c-19 -18 -5 -41 27 -47 59 -11 118 29 70 48 -21 8 -89 8
-97 -1z"/>
<path d="M5232 2846 c-73 -83 -34 -216 63 -216 57 0 115 65 115 127 0 59 -64
123 -123 123 -16 0 -36 -13 -55 -34z"/>
<path d="M4885 2814 c-33 -36 -32 -77 1 -103 15 -12 33 -21 41 -21 23 0 63 47
63 75 0 29 -40 75 -65 75 -9 0 -27 -12 -40 -26z"/>
<path d="M5668 2830 c-25 -15 -42 -74 -28 -99 12 -24 41 -41 66 -41 23 0 74
49 74 71 0 44 -75 91 -112 69z"/>
</g>
</svg>
